<!DOCTYPE svg PUBLIC "-//W3C//DTD SVG 20010904//EN" "http://www.w3.org/TR/2001/REC-SVG-20010904/DTD/svg10.dtd">
<svg version="1.0" xmlns="http://www.w3.org/2000/svg" width="258px" height="258px" viewBox="0 0 2580 2580" preserveAspectRatio="xMidYMid meet">
<g id="layer1" fill="#e0e1e1" stroke="none">
 <path d="M1173 2393 c9 -2 25 -2 35 0 9 3 1 5 -18 5 -19 0 -27 -2 -17 -5z"/>
 <path d="M1373 2393 c9 -2 25 -2 35 0 9 3 1 5 -18 5 -19 0 -27 -2 -17 -5z"/>
 <path d="M500 2075 c-24 -25 -42 -45 -39 -45 3 0 25 20 49 45 24 25 42 45 39 45 -3 0 -25 -20 -49 -45z"/>
 <path d="M2070 2078 c41 -45 50 -53 50 -45 0 2 -21 23 -47 47 l-48 45 45 -47z"/>
 <path d="M182 1390 c0 -19 2 -27 5 -17 2 9 2 25 0 35 -3 9 -5 1 -5 -18z"/>
 <path d="M2392 1390 c0 -19 2 -27 5 -17 2 9 2 25 0 35 -3 9 -5 1 -5 -18z"/>
 <path d="M182 1190 c0 -19 2 -27 5 -17 2 9 2 25 0 35 -3 9 -5 1 -5 -18z"/>
 <path d="M2392 1190 c0 -19 2 -27 5 -17 2 9 2 25 0 35 -3 9 -5 1 -5 -18z"/>
 <path d="M500 508 c24 -27 45 -48 47 -48 8 0 0 9 -44 50 l-48 45 45 -47z"/>
 <path d="M2070 505 c-24 -25 -42 -45 -39 -45 3 0 25 20 49 45 24 25 42 45 39 45 -3 0 -25 -20 -49 -45z"/>
 <path d="M1173 183 c9 -2 25 -2 35 0 9 3 1 5 -18 5 -19 0 -27 -2 -17 -5z"/>
 <path d="M1373 183 c9 -2 25 -2 35 0 9 3 1 5 -18 5 -19 0 -27 -2 -17 -5z"/>
 </g>
<g id="layer2" fill="#d8d9d9" stroke="none">
 <path d="M1055 2400 c-158 -34 -287 -91 -425 -189 -197 -142 -345 -343 -419 -570 -69 -212 -69 -490 0 -702 87 -267 285 -507 530 -642 331 -184 767 -184 1098 0 238 131 420 347 524 620 54 141 74 413 41 584 -74 396 -344 710 -741 862 -149 57 -430 74 -608 37z m427 -15 c373 -65 698 -328 838 -679 64 -160 74 -213 74 -416 0 -203 -10 -256 -74 -416 -144 -360 -486 -630 -869 -685 -114 -16 -324 -7 -423 20 -412 108 -711 407 -819 819 -27 100 -36 309 -19 423 68 467 438 850 903 934 99 18 287 18 389 0z"/>
 <path d="M901 1471 c-1 -8 -11 -26 -23 -40 l-22 -26 28 26 c16 15 26 33 23 40 -4 11 -6 11 -6 0z"/>
 <path d="M1635 1360 c21 -22 41 -40 44 -40 3 0 -13 18 -34 40 -21 22 -41 40 -44 40 -3 0 13 -18 34 -40z"/>
 <path d="M1860 1255 c19 -19 36 -35 39 -35 3 0 -10 16 -29 35 -19 19 -36 35 -39 35 -3 0 10 -16 29 -35z"/>
 <path d="M749 1193 l-34 -38 38 34 c34 33 42 41 34 41 -2 0 -19 -17 -38 -37z"/>
 </g>
<g id="layer3" fill="#656f6e" stroke="none">
 <path d="M899 1875 c-51 -28 -54 -55 -19 -246 l31 -174 -126 -120 c-134 -129 -152 -158 -130 -211 6 -16 19 -35 28 -42 13 -11 300 -61 354 -62 7 0 49 -72 93 -159 79 -159 104 -191 148 -191 55 0 75 23 156 187 l79 160 156 22 c193 28 217 35 236 71 31 61 24 74 -117 216 l-132 134 27 157 c15 87 27 170 27 184 0 38 -35 77 -75 85 -29 5 -55 -5 -188 -75 -85 -45 -159 -81 -165 -81 -6 0 -75 34 -154 76 -155 82 -189 92 -229 69z m203 -140 c79 -42 154 -79 167 -82 19 -5 65 15 187 78 107 55 166 81 172 74 6 -6 -1 -71 -19 -175 -16 -91 -27 -176 -24 -191 3 -14 57 -76 130 -149 112 -111 141 -149 118 -150 -62 -2 -340 -52 -359 -65 -15 -10 -53 -73 -102 -170 -42 -85 -82 -155 -89 -155 -7 0 -49 72 -93 160 -44 87 -88 164 -99 169 -10 6 -94 22 -187 36 -93 14 -173 30 -179 36 -7 7 32 51 123 139 154 150 146 125 107 346 -29 163 -30 174 -10 174 8 0 79 -34 157 -75z"/>
 </g>
<g id="layer4" fill="#e8e8e8" stroke="none">
 <path d="M1158 2390 c-239 -28 -474 -144 -649 -319 -434 -433 -434 -1129 0 -1562 321 -322 796 -414 1218 -236 247 105 472 328 578 577 180 421 89 899 -234 1221 -242 242 -574 358 -913 319z m-123 -530 c28 -16 96 -52 153 -80 l103 -51 52 30 c98 57 259 131 284 131 37 0 60 -16 78 -54 14 -28 14 -43 5 -87 -5 -30 -12 -65 -14 -79 -2 -14 -7 -40 -10 -57 -7 -39 -14 -81 -21 -125 -5 -31 2 -40 125 -158 116 -111 130 -129 130 -158 0 -71 -39 -108 -120 -117 -25 -3 -56 -7 -70 -9 -61 -10 -117 -19 -135 -21 -77 -8 -76 -7 -159 -168 -44 -84 -86 -160 -94 -169 -16 -19 -66 -24 -104 -9 -18 7 -44 50 -102 169 -84 170 -83 169 -161 178 -32 4 -95 12 -135 18 -14 2 -49 7 -79 10 -60 7 -87 22 -107 61 -28 55 -15 78 121 210 l127 124 -6 48 c-3 26 -10 68 -15 93 -5 25 -12 64 -15 85 -3 22 -8 60 -11 84 -16 114 73 164 180 101z"/>
 <path d="M936 1768 c3 -24 7 -50 8 -58 1 -8 5 -24 9 -35 3 -11 9 -42 12 -70 4 -27 9 -61 11 -75 18 -106 22 -97 -80 -195 -125 -120 -171 -174 -160 -185 5 -5 27 -12 49 -15 22 -3 56 -8 75 -11 19 -2 51 -7 70 -10 19 -3 51 -7 70 -10 19 -3 42 -5 50 -6 41 -2 77 -50 150 -197 41 -83 78 -150 83 -148 5 1 45 72 89 157 44 85 84 160 89 166 8 10 54 22 114 30 20 3 72 11 135 20 63 9 95 13 113 13 9 1 17 7 17 14 0 6 -59 69 -131 138 l-131 125 5 60 c3 32 9 75 12 94 3 19 8 46 10 60 3 14 7 48 11 75 3 28 10 58 16 69 6 11 6 22 0 28 -9 9 -55 -12 -242 -108 -99 -51 -133 -54 -186 -18 -21 15 -80 46 -130 69 -50 24 -94 48 -98 54 -4 6 -16 11 -27 11 -17 0 -19 -5 -13 -42z"/>
 </g>

</svg>