<!DOCTYPE svg PUBLIC "-//W3C//DTD SVG 20010904//EN" "http://www.w3.org/TR/2001/REC-SVG-20010904/DTD/svg10.dtd">
<svg version="1.0" xmlns="http://www.w3.org/2000/svg" width="258px" height="258px" viewBox="0 0 2580 2580" preserveAspectRatio="xMidYMid meet">
<g id="layer1" fill="#e99c19" stroke="none">
 <path d="M894 1875 c-46 -31 -47 -58 -15 -241 l30 -169 -128 -130 c-71 -71 -131 -141 -134 -154 -8 -32 18 -85 47 -99 13 -6 91 -20 172 -32 82 -11 159 -25 171 -30 15 -6 43 -54 91 -153 38 -79 79 -153 92 -165 26 -24 78 -29 111 -12 11 6 55 83 99 170 62 124 85 161 102 165 13 2 91 14 173 25 159 22 192 35 209 82 18 50 -2 79 -132 204 l-126 120 27 165 c15 90 27 174 27 187 0 35 -52 82 -90 82 -19 0 -88 -30 -184 -80 l-154 -80 -154 80 c-158 82 -196 92 -234 65z m388 -215 c20 0 87 29 183 79 101 53 155 77 162 70 7 -7 0 -66 -19 -176 -16 -92 -27 -178 -23 -192 4 -15 58 -76 132 -147 82 -78 125 -126 121 -135 -4 -11 -52 -21 -174 -38 -93 -12 -179 -29 -192 -38 -14 -9 -54 -76 -100 -170 -42 -86 -82 -158 -89 -160 -7 -3 -43 58 -90 153 -48 97 -88 164 -103 175 -17 12 -79 25 -188 41 -90 12 -169 26 -175 30 -8 5 36 55 121 141 115 117 132 138 132 166 0 19 -11 101 -25 184 -14 82 -23 157 -20 164 4 11 42 -4 160 -66 98 -51 167 -81 187 -81z"/>
 </g>
<g id="layer2" fill="#e8e8e7" stroke="none">
 <path d="M1055 2400 c-421 -91 -746 -398 -862 -816 -26 -93 -28 -112 -28 -294 0 -182 2 -201 28 -294 109 -393 414 -698 802 -803 93 -25 114 -27 295 -27 181 0 202 2 295 27 388 105 693 410 802 803 26 93 28 112 28 294 0 182 -2 201 -28 295 -109 392 -417 699 -805 802 -136 36 -392 42 -527 13z m73 -590 l154 -80 154 80 c96 50 165 80 184 80 38 0 90 -47 90 -82 0 -13 -12 -97 -27 -187 l-27 -165 126 -120 c130 -125 150 -154 132 -204 -17 -47 -50 -60 -209 -82 -82 -11 -160 -23 -173 -25 -17 -4 -40 -41 -102 -165 -44 -87 -88 -164 -99 -170 -33 -17 -85 -12 -111 12 -13 12 -54 86 -92 165 -48 99 -76 147 -91 153 -12 5 -89 19 -171 30 -81 12 -159 26 -172 32 -29 14 -55 67 -47 99 3 13 63 83 134 154 l128 130 -30 169 c-32 183 -31 210 15 241 38 27 76 17 234 -65z"/>
 <path d="M935 1807 c-3 -7 6 -82 20 -164 14 -83 25 -165 25 -184 0 -28 -17 -49 -132 -166 -85 -86 -129 -136 -121 -141 6 -4 85 -18 175 -30 109 -16 171 -29 188 -41 15 -11 55 -78 103 -175 47 -95 83 -156 90 -153 7 2 47 74 89 160 46 94 86 161 100 170 13 9 99 26 192 38 122 17 170 27 174 38 4 9 -39 57 -121 135 -74 71 -128 132 -132 147 -4 14 7 100 23 192 19 110 26 169 19 176 -7 7 -61 -17 -162 -70 -96 -50 -163 -79 -183 -79 -20 0 -89 30 -187 81 -118 62 -156 77 -160 66z"/>
 </g>

</svg>